<?xml version="1.0" standalone="no"?>
<!DOCTYPE svg PUBLIC "-//W3C//DTD SVG 20010904//EN"
 "http://www.w3.org/TR/2001/REC-SVG-20010904/DTD/svg10.dtd">
<svg version="1.0" xmlns="http://www.w3.org/2000/svg"
 width="1170.000000pt" height="1170.000000pt" viewBox="0 0 1170.000000 1170.000000"
 preserveAspectRatio="xMidYMid meet">
<metadata>
Created by potrace 1.14, written by Peter Selinger 2001-2017
</metadata>
<g transform="translate(0.000000,1170.000000) scale(0.100000,-0.100000)"
fill="#000000" stroke="none">
<path d="M1929 11686 c-2 -2 -35 -6 -74 -10 -99 -9 -294 -50 -400 -84 -264
-85 -514 -222 -730 -402 -76 -63 -247 -244 -311 -330 -218 -291 -339 -584
-400 -970 -9 -63 -12 -403 -3 -470 5 -36 11 -83 14 -105 12 -87 62 -282 96
-375 77 -205 78 -207 444 -835 125 -214 241 -415 258 -445 16 -30 33 -59 37
-65 4 -5 17 -26 28 -45 11 -19 67 -116 124 -215 58 -99 203 -349 323 -555 119
-206 239 -412 266 -458 27 -45 49 -87 49 -92 0 -6 5 -10 10 -10 6 0 10 -4 10
-9 0 -6 30 -61 66 -123 37 -62 74 -126 84 -143 9 -16 147 -253 305 -525 158
-272 337 -580 398 -685 61 -104 142 -244 181 -310 39 -66 73 -124 75 -130 2
-5 41 -73 86 -150 46 -77 92 -157 104 -177 42 -76 59 -105 115 -197 31 -51 56
-95 56 -98 0 -3 79 -139 130 -223 45 -75 100 -174 100 -181 0 -5 5 -9 10 -9 6
0 10 -4 10 -9 0 -5 47 -90 104 -188 124 -214 158 -279 203 -398 47 -121 95
-316 98 -395 0 -13 -217 -15 -1898 -15 l-1898 0 5 -195 c6 -269 31 -422 101
-636 220 -661 774 -1170 1470 -1349 79 -20 121 -28 265 -50 114 -17 676 -20
4015 -19 3350 0 3871 3 4015 20 144 16 426 90 534 139 17 7 66 29 108 48 303
137 582 371 816 682 56 75 170 285 226 415 21 51 75 218 86 265 48 225 54 271
54 475 1 239 -14 360 -71 565 -60 218 -140 390 -317 684 -31 51 -56 95 -56 96
0 2 -19 36 -43 77 -24 40 -55 93 -69 118 -14 25 -81 140 -148 255 -68 116
-130 224 -140 240 -36 64 -569 980 -683 1175 -66 113 -130 223 -142 245 -13
22 -62 108 -110 190 -48 83 -95 164 -105 180 -10 17 -59 102 -110 190 -51 88
-101 174 -110 190 -10 17 -66 113 -125 215 -481 827 -679 1167 -697 1200 -11
19 -24 40 -28 45 -4 6 -19 31 -33 56 -13 25 -123 214 -242 420 -354 608 -367
630 -411 724 -36 76 -97 240 -109 294 -23 101 -36 169 -38 199 l-2 37 1898 0
1898 0 -5 210 c-3 116 -8 221 -11 235 -3 14 -8 45 -11 70 -12 90 -73 308 -113
410 -75 187 -210 418 -328 560 -76 92 -251 257 -350 332 -272 205 -611 351
-918 397 -38 6 -86 14 -105 18 -35 7 -7923 17 -7931 9z"/>
</g>
</svg>
